PathFileType	4	(X/Y/Z)	9_coords_data.trc
DataRate	CameraRate	NumFrames	NumMarkers	Units	OrigDataRate	OrigDataStartFrame	OrigNumFrames
30.0	30.0	6	21	m	30.0	40	49
Frame#	Time	THUMB_TIP	THUMB_IP	THUMB_MCP	THUMB_CMC	INDEX_TIP	INDEX_DIP	INDEX_PIP	INDEX_MCP	MIDDLE_TIP	MIDDLE_DIP	MIDDLE_PIP	MIDDLE_MCP	RING_TIP	RING_DIP	RING_PIP	RING_MCP	PINKY_TIP	PINKY_DIP	PINKY_PIP	PINKY_MCP	WRIST
X1	Y1	Z1	X2	Y2	Z2	X3	Y3	Z3	X4	Y4	Z4	X5	Y5	Z5	X6	Y6	Z6	X7	Y7	Z7	X8	Y8	Z8	X9	Y9	Z9	X10	Y10	Z10	X11	Y11	Z11	X12	Y12	Z12	X13	Y13	Z13	X14	Y14	Z14	X15	Y15	Z15	X16	Y16	Z16	X17	Y17	Z17	X18	Y18	Z18	X19	Y19	Z19	X20	Y20	Z20	X21	Y21	Z21
38	1.299999999999994	0.5377491801536287	-0.022198332116774577	-0.14713853912449892	0.5178723412356626	-0.023909347302635164	-0.1357374996252699	0.49456612027861313	-0.024871147845371144	-0.1151288848145364	0.4820318776360504	-0.026935700827772746	-0.07236768297969295	0.5916056255908605	0.03277357503484757	-0.13738616471825693	0.5744914080486725	0.03335067186977869	-0.1314895116708258	0.5510644210190453	0.03284232898132056	-0.12238304697691554	0.5172634184874968	0.014026671265134572	-0.10457576345107741	0.6071334737392522	0.045703168865894206	-0.1080240709088833	0.5897752450963435	0.04316759317579577	-0.10352265398748123	0.562063516269751	0.04028432937689219	-0.09496950104208496	0.5239462558088548	0.019889655632803982	-0.08368767234154187	0.6037776958149378	0.04591565325461422	-0.08376775197220052	0.5869912893246766	0.043352328637983106	-0.0777141642712178	0.5634160150674697	0.03968175711316768	-0.07057880672035205	0.5306029160487477	0.01700151447416487	-0.06397366019483813	0.6008313452951947	0.01119232630976863	-0.051415700704096234	0.5850035898121978	0.013946924166447161	-0.04550855697650297	0.5645600901535827	0.015578194749075847	-0.0410125257272288	0.5305144846908568	0.003850234351874371	-0.043070472421898154	0.4622830810018609	-0.023011742144276925	-0.051989820119430985
39	1.3333333333333275	0.5376550426454791	-0.022089572336850827	-0.14722623163153203	0.5178138263937421	-0.023795336457680505	-0.13576252776166958	0.4944886461522525	-0.024787929202026104	-0.11517683548897945	0.4819983697477285	-0.026907678687627334	-0.07240547056503902	0.5909410037979493	0.032753323057309824	-0.1381967479596619	0.5738712871695113	0.03352552200472392	-0.1321943748447649	0.5505026911929384	0.033160044475595174	-0.12293235663816421	0.5170128362480454	0.014143498787557163	-0.10475443871930448	0.6069062902315827	0.04543833631099781	-0.1085693091285575	0.5895462709453182	0.043080153499662543	-0.10397924331107214	0.5618544056878157	0.04037561018845204	-0.09530424509561924	0.5237679797077152	0.02000193019808638	-0.08388123145155427	0.6038262003104563	0.045230143399459855	-0.08427002278399032	0.5870404409412842	0.042925407262651705	-0.0781115754358398	0.5634510169014632	0.03956078198566626	-0.07087290503203009	0.5305310376857151	0.017065344506216995	-0.06416834725072101	0.6009407412371501	0.010065178698429822	-0.051707439736417726	0.585179461301186	0.013054962274291704	-0.045737243010205486	0.5647791542351799	0.01499359714591686	-0.04116764943449425	0.5305335920239966	0.003877208343648575	-0.04330091449931722	0.462283081001861	-0.023011742144276925	-0.051989820119430985
41	1.3666666666666676	0.537585568489011	-0.021886765861951707	-0.14729403242625555	0.5177858495300928	-0.023596750867646676	-0.1357594288167614	0.49444291533424356	-0.024654301498894138	-0.11519710867066418	0.48200117115888386	-0.02684270829694324	-0.07241505778993665	0.5902791681796032	0.03296978700916353	-0.13903069371649923	0.5732593518965098	0.03380804598867815	-0.13289692036129547	0.5499626110214031	0.03347392228420598	-0.1234544599325591	0.5167856073755702	0.014280483179638481	-0.10489282157750965	0.6066426384774939	0.04544400189580655	-0.10903159196444875	0.5892907803476218	0.04316057242675442	-0.10437337671602373	0.5616239146382819	0.04053454297730519	-0.09559510461087839	0.5235916332578944	0.0201303632924259	-0.08404681705859657	0.6037673168325562	0.044889942861828125	-0.08470539431759644	0.5869908074908646	0.042741218397911784	-0.07846586569066469	0.5634019954240022	0.03957135195410855	-0.07113784610808346	0.5304486860615414	0.01715083963233599	-0.06434661181001866	0.6010049901332026	0.009249656445765586	-0.05196485846521043	0.5852958037864106	0.012417685394925937	-0.0459494568245018	0.564930354338337	0.014572103007194914	-0.04132139324132694	0.5305332523769307	0.00394584071132531	-0.04351351031757894	0.462283081001861	-0.023011742144276925	-0.051989820119430985
42	1.400000000000001	0.5374862303215153	-0.02165663998636802	-0.14739908675527105	0.5177473814057664	-0.023380205807622567	-0.135762628344696	0.49439021411250283	-0.024517944614866116	-0.11522076167097337	0.4819998962318016	-0.02678139748494901	-0.07242769209282687	0.5896405177232009	0.03315927769940541	-0.13987493539017354	0.5726722984736771	0.034038448839562196	-0.13360543831254423	0.549450840287014	0.03372188124345543	-0.12397873079428273	0.5165650685100512	0.014403203864965075	-0.10503273351308012	0.6063907464467313	0.04546140632872797	-0.10949476618826348	0.5890495932865268	0.04322935822971785	-0.10477222784982346	0.5614090749413586	0.04066144253159132	-0.09589432806565554	0.5234261528189353	0.020240382619859165	-0.08421417994487493	0.6037270364116616	0.04452924476923936	-0.08513239375728138	0.5869607957187737	0.04252596781230844	-0.07881732808367337	0.5633738466833016	0.039546208506729075	-0.07140403942890894	0.5303790127642881	0.01721424636590685	-0.0645232520032143	0.6010759350807622	0.008387779270855322	-0.05217047064906599	0.5854160780767815	0.011730381998525496	-0.04612101731675128	0.5650860458864886	0.014104557459040601	-0.04144500394804296	0.5305383481409952	0.003996608591831929	-0.04371863566490741	0.4622830810018609	-0.023011742144276925	-0.051989820119430985
43	1.4333333333333345	0.537366638800438	-0.021408466596081088	-0.14753531846975976	0.5177084131589291	-0.02315656572875968	-0.1357667878031959	0.4943380353320477	-0.02438667466655242	-0.11524528025063119	0.48199438396098804	-0.02672744006660155	-0.07244288442783087	0.5890662404286504	0.03328893545180167	-0.14068047230326486	0.5721480246598474	0.034188592127221584	-0.13428011347999563	0.5489998657445309	0.033883161465074196	-0.12447810940216192	0.5163609872603646	0.01450593843261061	-0.10516845034649785	0.6061689049295405	0.0454646993275315	-0.10993622736602776	0.588839392330274	0.04326645350040681	-0.10515546295482792	0.5612240973451875	0.040744501698103175	-0.09618636088196075	0.5232804513264481	0.020325864527619752	-0.08437505680896545	0.6037238893915283	0.04411625513468287	-0.08553000134217953	0.5869670177381345	0.042253872176485685	-0.0791473073883146	0.5633810567391798	0.03946746254949551	-0.07165608958702191	0.530327651969124	0.017249439562422753	-0.06468811128246571	0.6011536690401766	0.007465948488805441	-0.05231250381562258	0.5855402837672494	0.010979981554658957	-0.04624012603330174	0.5652467559457077	0.013582691911624867	-0.04152730879156058	0.530550537581036	0.00402227403006572	-0.043905184339394554	0.4622830810018609	-0.023011742144276925	-0.051989820119430985
44	1.466666666666668	0.5372363181054692	-0.021151609189116738	-0.14769663789520585	0.5176789901933541	-0.022936757066324587	-0.13576666840679152	0.4942939354104856	-0.02426839739930675	-0.11526823073886633	0.48198446947919227	-0.02668453740434651	-0.07246017873971111	0.5885989273434277	0.0333263256835753	-0.1413989008933428	0.5717256364089286	0.034230804139921966	-0.13488169506862333	0.5486430012343031	0.033937490259901115	-0.12492600557150996	0.516183170283725	0.01458305189483855	-0.10529436824211544	0.6059954530520988	0.04542813498207654	-0.11033342672512339	0.5886769924056819	0.04325190482068919	-0.10550280118352154	0.561083339078306	0.04077201462271984	-0.09645570271746018	0.5231634916355729	0.020380773068096825	-0.08452128363730108	0.6037759446168861	0.04361914597312577	-0.08587707403891734	0.5870257769559108	0.041899102267046295	-0.07943709477044156	0.5634380047117503	0.03931715776604339	-0.07187861991427152	0.5303002797297358	0.017250341414140058	-0.06483109317734173	0.6012379346465772	0.006470819166943587	-0.05237919174456279	0.5856681073018757	0.010153636152032908	-0.046295004410947915	0.5654129134433079	0.012998356978051628	-0.04155720912475663	0.5305715590170931	0.004015651298362233	-0.044062098627102086	0.4622830810018608	-0.023011742144276925	-0.051989820119430985
